<?xml version="1.0" standalone="no"?>
<!DOCTYPE svg PUBLIC "-//W3C//DTD SVG 20010904//EN"
 "http://www.w3.org/TR/2001/REC-SVG-20010904/DTD/svg10.dtd">
<svg version="1.0" xmlns="http://www.w3.org/2000/svg"
 width="1400.000000pt" height="223.000000pt" viewBox="0 0 1400.000000 223.000000"
 preserveAspectRatio="xMidYMid meet">
<metadata>
Created by potrace 1.16, written by Peter Selinger 2001-2019
</metadata>
<g transform="translate(0.000000,223.000000) scale(0.100000,-0.100000)"
fill="#000000" stroke="none">
<path d="M250 1792 c0 -65 37 -137 96 -186 74 -62 91 -65 362 -66 l242 0 0
-560 0 -560 145 0 145 0 0 560 0 560 243 1 c158 0 253 5 274 12 48 18 128 85
152 127 12 21 24 65 27 99 l7 61 -847 0 -846 0 0 -48z"/>
<path d="M2200 1410 l0 -430 150 0 c147 0 150 0 155 23 3 12 4 204 3 427 l-3
405 -152 3 -153 3 0 -431z"/>
<path d="M3595 1827 c-3 -6 -4 -199 -3 -427 l3 -415 153 -3 152 -3 0 431 0
430 -150 0 c-111 0 -152 -3 -155 -13z"/>
<path d="M4162 1788 c7 -78 41 -140 103 -188 29 -22 68 -45 86 -50 19 -6 138
-10 266 -10 l233 0 2 -557 3 -558 150 0 150 0 3 557 2 557 253 3 252 3 51 33
c80 50 144 155 144 234 l0 28 -851 0 -851 0 4 -52z"/>
<path d="M6120 1788 c0 -93 66 -184 164 -229 39 -18 76 -19 677 -19 l635 0 52
26 c73 36 138 111 151 175 6 27 11 61 11 74 l0 25 -845 0 -845 0 0 -52z"/>
<path d="M8070 1410 l0 -430 695 0 695 0 0 -124 0 -125 -582 -3 c-541 -3 -587
-5 -632 -22 -94 -36 -176 -148 -176 -241 l0 -45 850 0 850 0 -2 433 -3 432
-697 3 -698 2 0 125 0 125 583 0 c342 0 596 4 616 10 94 27 186 138 198 241
l6 49 -852 0 -851 0 0 -430z"/>
<path d="M10022 1133 l3 -708 745 0 745 0 53 29 c87 49 143 126 156 217 6 38
4 48 -9 53 -9 3 -325 6 -701 6 l-684 0 0 555 0 555 -155 0 -155 0 2 -707z"/>
<path d="M11980 1798 c1 -87 75 -192 165 -234 l50 -24 635 0 c722 0 672 -5
767 87 52 51 67 83 80 171 l6 42 -852 0 -851 0 0 -42z"/>
<path d="M6120 1236 c0 -30 5 -67 10 -82 20 -51 88 -120 142 -145 l53 -24 640
0 640 0 54 30 c79 44 129 107 143 182 19 103 112 93 -842 93 l-840 0 0 -54z"/>
<path d="M11985 1278 c-3 -7 -4 -202 -3 -433 l3 -420 148 -3 147 -3 0 281 0
280 550 0 550 0 0 -280 0 -281 148 3 147 3 0 430 0 430 -843 3 c-669 2 -844 0
-847 -10z"/>
<path d="M2203 715 c-3 -9 -3 -34 1 -56 13 -83 70 -161 148 -205 l53 -29 645
0 c615 0 647 1 680 19 101 55 162 140 164 231 l1 50 -843 3 c-752 2 -843 0
-849 -13z"/>
<path d="M6120 675 c0 -68 22 -115 82 -171 88 -85 32 -79 758 -79 l645 0 41
22 c51 27 116 89 138 130 8 17 17 58 18 90 l3 58 -842 3 -843 2 0 -55z"/>
</g>
</svg>
